<?xml version="1.0" encoding="UTF-8"?>
<svg width="32px" height="32px" viewBox="0 0 68 68" version="1.1" xmlns="http://www.w3.org/2000/svg" xmlns:xlink="http://www.w3.org/1999/xlink">
    <title>Shortcodes-Icons/Suggest</title>
    <desc>Created with Sketch.</desc>
    <g id="Shortcodes-Icons/Suggest" stroke="none" stroke-width="1" fill="none" fill-rule="evenodd">
        <g id="Shortcodes-Icons/Suggest2" fill="#000000" fill-rule="nonzero">
            <g id="Shortcodes-Icons/Suggest3">
                <path d="M66.4,29.6 C65.9,28.7 64.9,28.1 63.9,28.1 C63.9,28.1 63.9,28.1 63.9,28.1 L59.8,28.1 C59.3,28.1 58.8,27.8 58.7,27.3 C58.1,25.2 57.3,23.2 56.2,21.3 C55.9,20.9 56,20.3 56.4,19.9 L59.3,17 C60,16.3 60.3,15.2 60,14.2 C59.7,13.3 59.1,11.9 57.6,10.4 C56.1,8.9 54.7,8.3 53.8,8 C52.8,7.7 51.7,8 51,8.7 L48,11.7 C47.6,12.1 47,12.2 46.6,11.9 C44.7,10.8 42.7,10 40.6,9.4 C40.1,9.3 39.8,8.8 39.8,8.3 L39.8,4.2 C39.8,3.2 39.2,2.2 38.3,1.7 C37.5,1.2 36,0.7 33.9,0.7 C33.9,0.7 33.9,0.7 33.9,0.7 C31.8,0.7 30.4,1.3 29.5,1.7 C28.6,2.2 28,3.2 28,4.2 L28,8.3 C28,8.8 27.7,9.3 27.2,9.4 C25.1,10 23.1,10.8 21.2,11.9 C20.8,12.2 20.2,12.1 19.8,11.7 L17,8.8 C16.3,8.1 15.2,7.8 14.2,8.1 C13.3,8.4 11.9,9 10.4,10.5 C8.9,12 8.3,13.4 8,14.3 C7.7,15.3 8,16.4 8.7,17.1 L11.6,20 C12,20.4 12.1,21 11.8,21.4 C10.7,23.3 9.9,25.3 9.3,27.4 C9.2,27.9 8.7,28.2 8.2,28.2 L4.1,28.2 C3.1,28.2 2.1,28.8 1.6,29.7 C1.1,30.5 0.6,32 0.6,34.1 C0.6,36.2 1.2,37.6 1.6,38.5 C2.1,39.4 3.1,40 4.1,40 C4.1,40 4.1,40 4.1,40 L8.2,40 C8.2,40 8.2,40 8.2,40 C8.7,40 9.2,40.3 9.3,40.8 C9.9,42.9 10.7,44.9 11.8,46.8 C12.1,47.2 12,47.8 11.6,48.2 L8.8,51 C8.1,51.7 7.8,52.8 8.1,53.8 C8.4,54.7 9,56.1 10.5,57.6 C12,59.1 13.4,59.7 14.3,60 C15.3,60.3 16.4,60 17.1,59.3 L20,56.4 C20.4,56 21,55.9 21.4,56.2 C23.3,57.3 25.3,58.1 27.4,58.7 C27.9,58.8 28.2,59.3 28.2,59.8 L28.2,63.9 C28.2,64.9 28.8,65.9 29.7,66.4 C30.5,66.9 32,67.4 34.1,67.4 C34.1,67.4 34.1,67.4 34.1,67.4 C36.2,67.4 37.6,66.8 38.5,66.4 C39.4,65.9 40,64.9 40,63.9 L40,59.8 C40,59.3 40.3,58.8 40.8,58.7 C42.9,58.1 44.9,57.3 46.8,56.2 C47.2,55.9 47.8,56 48.2,56.4 L51.1,59.3 C51.8,60 52.9,60.3 53.9,60 C54.8,59.7 56.2,59.1 57.7,57.6 C59.2,56.1 59.8,54.7 60.1,53.8 C60.4,52.8 60.1,51.7 59.4,51 L56.3,48 C55.9,47.6 55.8,47 56.1,46.6 C57.2,44.7 58,42.7 58.6,40.6 C58.7,40.1 59.2,39.8 59.7,39.8 L63.8,39.8 C64.8,39.8 65.8,39.2 66.3,38.3 C66.8,37.5 67.3,36 67.3,33.9 C67.4,31.8 66.8,30.4 66.4,29.6 Z M64.6,37.3 C64.4,37.6 64.2,37.7 63.8,37.7 L59.7,37.7 C58.3,37.7 57,38.7 56.6,40 C56.1,41.9 55.3,43.8 54.3,45.5 C53.6,46.7 53.8,48.3 54.9,49.3 L57.8,52.2 C58,52.4 58.1,52.8 58,53.1 C57.8,53.8 57.3,54.9 56.1,56 C54.9,57.2 53.8,57.7 53.2,57.9 C52.9,58 52.6,57.9 52.3,57.7 L49.4,54.8 C48.4,53.8 46.8,53.6 45.6,54.3 C43.9,55.3 42,56.1 40.1,56.6 C38.7,57 37.8,58.2 37.8,59.7 L37.8,63.8 C37.8,64.1 37.6,64.4 37.4,64.6 C36.8,65 35.7,65.4 34,65.4 C34,65.4 34,65.4 34,65.4 C32.3,65.4 31.2,65 30.6,64.6 C30.3,64.4 30.2,64.2 30.2,63.8 L30.2,59.7 C30.2,58.3 29.2,57 27.9,56.6 C26,56.1 24.1,55.3 22.4,54.3 C21.9,54 21.4,53.9 20.9,53.9 C20.1,53.9 19.2,54.2 18.6,54.9 L15.7,57.8 C15.5,58 15.1,58.1 14.8,58 C14.1,57.8 13,57.3 11.8,56.1 C10.6,54.9 10.1,53.8 9.9,53.2 C9.8,52.9 9.9,52.6 10.1,52.3 L13,49.4 C14,48.4 14.2,46.8 13.5,45.6 C12.5,43.9 11.7,42 11.2,40.1 C10.8,38.7 9.6,37.8 8.1,37.8 C8.1,37.8 8.1,37.8 8.1,37.8 L4,37.8 C4,37.8 4,37.8 4,37.8 C3.7,37.8 3.4,37.6 3.2,37.4 C2.8,36.8 2.4,35.7 2.4,34 C2.4,32.3 2.8,31.2 3.2,30.6 C3.4,30.3 3.6,30.2 4,30.2 L8.1,30.2 C9.5,30.2 10.8,29.2 11.2,27.9 C11.7,26 12.5,24.1 13.5,22.4 C14.2,21.2 14,19.6 12.9,18.6 L10,15.7 C9.8,15.5 9.7,15.1 9.8,14.8 C10,14.1 10.5,13 11.7,11.8 C12.9,10.6 13.9,10.1 14.6,9.9 C14.9,9.8 15.2,9.9 15.5,10.1 L18.4,13 C19.4,14 21,14.2 22.2,13.5 C23.9,12.5 25.8,11.7 27.7,11.2 C29.1,10.8 30,9.6 30,8.1 L30,4 C30,3.7 30.2,3.4 30.4,3.2 C31,2.8 32.1,2.4 33.8,2.4 C33.8,2.4 33.8,2.4 33.8,2.4 C35.5,2.4 36.6,2.8 37.2,3.2 C37.5,3.4 37.6,3.6 37.6,4 L37.6,8.1 C37.6,9.5 38.6,10.8 39.9,11.2 C41.8,11.7 43.7,12.5 45.4,13.5 C46.6,14.2 48.2,14 49.2,12.9 L52.1,10 C52.3,9.8 52.7,9.7 53,9.8 C53.7,10 54.8,10.5 55.9,11.7 C57.1,12.9 57.6,13.9 57.8,14.6 C57.9,14.9 57.8,15.2 57.6,15.5 L54.7,18.4 C53.7,19.4 53.5,21 54.2,22.2 C55.2,23.9 56,25.8 56.5,27.7 C56.9,29.1 58.1,30 59.6,30 C59.6,30 59.6,30 59.6,30 L63.7,30 C63.7,30 63.7,30 63.7,30 C64,30 64.3,30.2 64.5,30.4 C64.5,30.4 64.5,30.4 64.5,30.4 C64.9,31 65.3,32.1 65.3,33.8 C65.4,35.6 65,36.7 64.6,37.3 Z" id="Shape"></path>
                <path d="M34.3,21.5 C30.9,21.4 27.8,22.6 25.4,25 C23,27.3 21.6,30.4 21.5,33.8 C21.4,37.1 22.6,40.3 25,42.7 C27.3,45.1 30.4,46.5 33.8,46.6 C33.9,46.6 34,46.6 34.1,46.6 C37.3,46.6 40.4,45.4 42.7,43.1 C45.1,40.8 46.5,37.7 46.6,34.3 C46.7,31 45.5,27.8 43.1,25.4 C40.7,22.9 37.6,21.6 34.3,21.5 Z M41.3,41.6 C39.3,43.5 36.6,44.6 33.8,44.5 C31,44.4 28.4,43.3 26.4,41.2 C24.5,39.2 23.4,36.5 23.5,33.7 C23.6,30.9 24.7,28.3 26.8,26.3 C28.8,24.4 31.3,23.4 34,23.4 C34.1,23.4 34.2,23.4 34.3,23.4 C37.1,23.5 39.7,24.6 41.7,26.7 C43.6,28.7 44.7,31.4 44.6,34.2 C44.4,37.1 43.3,39.7 41.3,41.6 Z" id="Shape"></path>
            </g>
        </g>
    </g>
</svg>