<?xml version="1.0" encoding="UTF-8"?>
<svg width="32px" height="32px" viewBox="0 0 32 32" version="1.1" xmlns="http://www.w3.org/2000/svg" xmlns:xlink="http://www.w3.org/1999/xlink">
    <!-- Generator: Sketch 49.3 (51167) - http://www.bohemiancoding.com/sketch -->
    <title>Shortcodes Icons/Numbers</title>
    <desc>Created with Sketch.</desc>
    <defs></defs>
    <g id="Shortcodes-Icons/Numbers" stroke="none" stroke-width="1" fill="none" fill-rule="evenodd">
        <rect id="Rectangle-36" stroke="#4A4A4A" x="0.5" y="4.5" width="31" height="23" rx="2"></rect>
        <path d="M9.19140625,21 L7.91992188,21 L7.91992188,12.5712891 L5.37011719,13.5078125 L5.37011719,12.359375 L8.99316406,10.9990234 L9.19140625,10.9990234 L9.19140625,21 Z M18.7128906,21 L12.1914062,21 L12.1914062,20.0908203 L15.6367188,16.2626953 C16.147138,15.6839164 16.4991852,15.2133807 16.6928711,14.8510742 C16.886557,14.4887677 16.9833984,14.1139342 16.9833984,13.7265625 C16.9833984,13.2070287 16.8261734,12.7809261 16.5117188,12.4482422 C16.1972641,12.1155582 15.7779974,11.9492188 15.2539062,11.9492188 C14.6249969,11.9492188 14.1362322,12.1280907 13.7875977,12.4858398 C13.4389631,12.843589 13.2646484,13.3414682 13.2646484,13.9794922 L12,13.9794922 C12,13.063472 12.2950817,12.3229195 12.8852539,11.7578125 C13.4754261,11.1927055 14.264969,10.9101562 15.2539062,10.9101562 C16.1790411,10.9101562 16.9104791,11.1528296 17.4482422,11.6381836 C17.9860053,12.1235376 18.2548828,12.7695272 18.2548828,13.5761719 C18.2548828,14.5559945 17.6305401,15.7226495 16.3818359,17.0761719 L13.7158203,19.9677734 L18.7128906,19.9677734 L18.7128906,21 Z M22.5234375,15.4082031 L23.4736328,15.4082031 C24.070641,15.3990885 24.5400374,15.2418635 24.8818359,14.9365234 C25.2236345,14.6311834 25.3945312,14.2187526 25.3945312,13.6992188 C25.3945312,12.5325462 24.8134824,11.9492188 23.6513672,11.9492188 C23.1044895,11.9492188 22.6681331,12.1053044 22.3422852,12.4174805 C22.0164372,12.7296565 21.8535156,13.1432266 21.8535156,13.6582031 L20.5888672,13.6582031 C20.5888672,12.8697877 20.877113,12.2146836 21.4536133,11.6928711 C22.0301136,11.1710586 22.7626909,10.9101562 23.6513672,10.9101562 C24.590174,10.9101562 25.3261692,11.1585262 25.859375,11.6552734 C26.3925808,12.1520207 26.6591797,12.8424435 26.6591797,13.7265625 C26.6591797,14.1595074 26.5190444,14.578774 26.2387695,14.984375 C25.9584947,15.389976 25.5768253,15.6930329 25.09375,15.8935547 C25.6406277,16.0667326 26.0633123,16.3538391 26.3618164,16.7548828 C26.6603205,17.1559265 26.8095703,17.6458304 26.8095703,18.2246094 C26.8095703,19.117843 26.5179066,19.8264948 25.9345703,20.3505859 C25.3512341,20.8746771 24.5924526,21.1367188 23.6582031,21.1367188 C22.7239537,21.1367188 21.9640329,20.8837916 21.378418,20.3779297 C20.7928031,19.8720678 20.5,19.2044312 20.5,18.375 L21.7714844,18.375 C21.7714844,18.8990912 21.9423811,19.3183578 22.2841797,19.6328125 C22.6259783,19.9472672 23.0839815,20.1044922 23.6582031,20.1044922 C24.2688833,20.1044922 24.736001,19.9449886 25.0595703,19.6259766 C25.3831396,19.3069646 25.5449219,18.8489613 25.5449219,18.2519531 C25.5449219,17.6731742 25.3671893,17.2288427 25.0117188,16.9189453 C24.6562482,16.6090479 24.143558,16.4495443 23.4736328,16.4404297 L22.5234375,16.4404297 L22.5234375,15.4082031 Z" id="123" fill="#4A4A4A"></path>
    </g>
</svg>