<?xml version="1.0" encoding="UTF-8"?>
<svg width="32px" height="32px" viewBox="0 0 32 32" version="1.1" xmlns="http://www.w3.org/2000/svg" xmlns:xlink="http://www.w3.org/1999/xlink">
    <!-- Generator: Sketch 49.3 (51167) - http://www.bohemiancoding.com/sketch -->
    <title>Shortcodes Icons/Testimonials</title>
    <desc>Created with Sketch.</desc>
    <defs></defs>
    <g id="Shortcodes-Icons/Testimonials" stroke="none" stroke-width="1" fill="none" fill-rule="evenodd">
        <path d="M13.1572609,5 C8.15664639,5 4,8.480469 4,12.857422 C4,14.9589845 4.98055252,16.8671875 6.53598232,18.2753905 L6.48705662,18.5058595 C6.13642241,19.4902345 5.27410674,20.046875 4.76242581,20.2246095 C4.46479419,20.326172 4.21812723,20.480469 4.08154284,20.75 C3.94699741,21.017578 4.02854025,21.388672 4.23239735,21.5820315 C4.70942271,22.0410155 5.32914829,21.996094 5.78171131,22 C7.4839177,22.0195315 9.48987157,21.1640625 10.7048599,20.5820315 L10.71913,20.576172 L11.1349985,20.345703 L10.9759902,20.298828 L10.9943372,20.3027345 C11.6711428,20.453125 12.3805655,20.5 13.0777565,20.5 C17.4749546,20.5 21.2585423,17.982422 22.0943562,14.359375 L22.0943562,14.357422 C22.2064777,13.875 22.2655961,13.373047 22.2655961,12.857422 C22.2655961,8.484375 18.1578754,5 13.1572609,5 Z M13.1572609,6 C17.6543488,6 21.2218478,9.0859375 21.2218478,12.857422 C21.2218478,13.3007815 21.1708836,13.730469 21.0750707,14.142578 C20.3615711,17.236328 17.0611245,19.5 13.0777565,19.5 C12.4335681,19.5 11.7995729,19.453125 11.2328499,19.328125 L11.0045299,19.263672 L10.2319114,19.689453 C9.07808049,20.2421875 7.08843519,21.015625 5.79394248,21 C5.61658667,21 5.6002781,20.966797 5.4759254,20.953125 C6.21796525,20.605469 7.07416506,19.9746095 7.48187926,18.814453 L7.49003355,18.7890625 L7.67758208,17.9453125 L7.44722369,17.75 C5.95295128,16.498047 5.04374835,14.761719 5.04374835,12.857422 C5.04374835,9.089844 8.66017356,6 13.1572609,6 Z M8.69686758,9.5 L8.69686758,10.5 L17.5687286,10.5 L17.5687286,9.5 L8.69686758,9.5 Z M8.69686758,12 L8.69686758,13 L17.5687286,13 L17.5687286,12 L8.69686758,12 Z M23.197223,14.0976565 C23.1707217,14.2578125 23.1523747,14.417969 23.1156801,14.576172 C23.0749087,14.748047 23.0219061,14.9160155 22.968903,15.0859375 C25.3723783,15.9746095 26.9543094,17.765625 26.9543094,19.7558595 C26.9543094,21.183594 26.1796525,22.517578 24.7689613,23.515625 L24.4855998,23.716797 L24.5732585,24.044922 C24.8545816,25.078125 25.8412499,25.611328 26.5241708,25.966797 C25.44169,26.107422 23.0891788,25.873047 21.9068076,24.533203 L21.7090664,24.3066405 L21.4073579,24.3652345 C20.932371,24.455078 20.3819565,24.5 19.7214595,24.5 C16.4760545,24.5 13.8401823,23.294922 12.814781,21.4921875 C12.3907582,21.484375 11.9952757,21.4570315 11.6242555,21.4140625 C12.5925769,23.871094 15.7054749,25.5 19.7214595,25.5 C20.3228381,25.5 20.8467507,25.464844 21.3176608,25.3964845 C22.4694532,26.513672 24.346977,26.998047 25.8677512,26.998047 C25.9676411,26.998047 26.0675309,26.996094 26.1633439,26.9921875 C27.046045,26.953125 27.6209223,26.7578125 27.8757435,26.4121095 C27.9878651,26.2558595 28.026598,26.0722655 27.9817492,25.892578 C27.8940905,25.5351565 27.5516106,25.359375 27.0766237,25.1152345 C26.6097911,24.873047 25.9961813,24.5546875 25.7087424,24.080078 C27.1703982,22.923828 27.9980578,21.3691405 27.9980578,19.7558595 C27.9980578,17.3027345 26.0838395,15.1132815 23.197223,14.0976565 Z M8.69686758,14.5 L8.69686758,15.5 L14.9593577,15.5 L14.9593577,14.5 L8.69686758,14.5 Z M21.7518762,17.5 C21.4909392,17.8515625 21.2035008,18.1875 20.8875221,18.5 L23.3093445,18.5 L23.3093445,17.5 L21.7518762,17.5 Z M18.9203013,20 C18.2006858,20.4140625 17.4117587,20.751953 16.5739059,21 L23.3093445,21 L23.3093445,20 L18.9203013,20 Z" id="Shape" fill="#4A4A4A" fill-rule="nonzero"></path>
    </g>
</svg>