<?xml version="1.0" encoding="UTF-8"?>
<svg width="90px" height="58px" viewBox="0 0 90 58" version="1.1" xmlns="http://www.w3.org/2000/svg" xmlns:xlink="http://www.w3.org/1999/xlink">
    <!-- Generator: Sketch 52.2 (67145) - http://www.bohemiancoding.com/sketch -->
    <title>noun_glitch_856131</title>
    <desc>Created with Sketch.</desc>
    <g id="Page-1" stroke="none" stroke-width="1" fill="none" fill-rule="evenodd">
        <g id="noun_glitch_856131" transform="translate(-1.000000, 0.000000)" fill="#4A4A4A">
            <path d="M70.493,57.351 L13.575,57.351 L13.575,36.245 L22.559,33.885 L6.315,31.517 L18.661,26.615 L0.954,23.371 L16.573,16.616 L16.573,0.649 L73.491,0.649 L73.491,18.66 L65.309,21.558 L83.204,25.769 L72.458,29.7 L91,31.825 L70.493,38.491 L70.493,57.351 Z M16.573,54.353 L67.496,54.353 L67.496,36.313 L76.966,33.233 L59.535,31.236 L72.771,26.393 L54.693,22.141 L70.494,16.541 L70.494,3.647 L19.571,3.647 L19.571,18.586 L11.209,22.203 L29.473,25.548 L17.838,30.169 L37.566,33.044 L16.573,38.559 L16.573,54.353 Z" id="Shape" fill-rule="nonzero"></path>
            <text id="Text" font-family="Gilroy-ExtraBold, Gilroy" font-size="11" font-weight="600">
                <tspan x="33" y="31">Text</tspan>
            </text>
        </g>
    </g>
</svg>