<?xml version="1.0" encoding="UTF-8"?>
<svg width="32px" height="32px" viewBox="0 0 32 32" version="1.1" xmlns="http://www.w3.org/2000/svg" xmlns:xlink="http://www.w3.org/1999/xlink">
    <!-- Generator: Sketch 49.3 (51167) - http://www.bohemiancoding.com/sketch -->
    <title>Shortcodes Icons/Team</title>
    <desc>Created with Sketch.</desc>
    <defs></defs>
    <g id="Shortcodes-Icons/Team" stroke="none" stroke-width="1" fill="none" fill-rule="evenodd">
        <path d="M7.99923018,26.527735 L7.97149517,27.0269652 L6.97303481,26.9714952 L7.00076982,26.472265 C7.34818411,20.2188079 10.3881694,17 16,17 C21.6118306,17 24.6518159,20.2188079 24.9992302,26.472265 L25.0269652,26.9714952 L24.0285048,27.0269652 L24.0007698,26.527735 C23.6815174,20.7811921 21.054836,18 16,18 C10.945164,18 8.31848256,20.7811921 7.99923018,26.527735 Z M16,17 C18.7614237,17 21,14.7614237 21,12 C21,9.23857625 18.7614237,7 16,7 C13.2385763,7 11,9.23857625 11,12 C11,14.7614237 13.2385763,17 16,17 Z M16,18 C12.6862915,18 10,15.3137085 10,12 C10,8.6862915 12.6862915,6 16,6 C19.3137085,6 22,8.6862915 22,12 C22,15.3137085 19.3137085,18 16,18 Z M12.0840321,18.777436 L12.9159679,18.222564 C13.480079,19.0683523 14.4878987,19.5004683 16.0000671,19.5006714 C17.5121516,19.5008744 18.519875,19.0687997 19.0839748,18.2226499 L19.9160252,18.7773501 C19.1458966,19.932543 17.8202866,20.5009158 15.9999329,20.5006714 C14.1796631,20.500427 12.8541494,19.9320954 12.0840321,18.777436 Z" id="Line-2" fill="#4A4A4A" fill-rule="nonzero"></path>
    </g>
</svg>