<?xml version="1.0" encoding="UTF-8"?>
<svg width="32px" height="32px" viewBox="0 0 32 32" version="1.1" xmlns="http://www.w3.org/2000/svg" xmlns:xlink="http://www.w3.org/1999/xlink">
    <!-- Generator: Sketch 49.3 (51167) - http://www.bohemiancoding.com/sketch -->
    <title>Shortcodes Icons/Numbers (Alternative)</title>
    <desc>Created with Sketch.</desc>
    <defs></defs>
    <g id="Shortcodes-Icons/Numbers-(Alternative)" stroke="none" stroke-width="1" fill="none" fill-rule="evenodd">
        <path d="M10,6.5 C9.17157288,6.5 8.5,7.17157288 8.5,8 L8.5,11.527864 C8.5,11.7607317 8.55421764,11.9904013 8.65835921,12.1986844 L9.23606798,13.354102 C9.40963727,13.7012406 9.5,14.0840232 9.5,14.472136 L9.5,17.527864 C9.5,17.9159768 9.40963727,18.2987594 9.23606798,18.645898 L8.65835921,19.8013156 C8.55421764,20.0095987 8.5,20.2392683 8.5,20.472136 L8.5,24 C8.5,24.8284271 9.17157288,25.5 10,25.5 L22,25.5 C22.8284271,25.5 23.5,24.8284271 23.5,24 L23.5,20.472136 C23.5,20.2392683 23.4457824,20.0095987 23.3416408,19.8013156 L22.763932,18.645898 C22.5903627,18.2987594 22.5,17.9159768 22.5,17.527864 L22.5,14.472136 C22.5,14.0840232 22.5903627,13.7012406 22.763932,13.354102 L23.3416408,12.1986844 C23.4457824,11.9904013 23.5,11.7607317 23.5,11.527864 L23.5,8 C23.5,7.17157288 22.8284271,6.5 22,6.5 L10,6.5 Z" id="Rectangle-44" stroke="#4A4A4A"></path>
        <path d="M19.7128906,21.0898438 L13.1914062,21.0898438 L13.1914062,20.1806641 L16.6367188,16.3525391 C17.147138,15.7737601 17.4991852,15.3032245 17.6928711,14.940918 C17.886557,14.5786115 17.9833984,14.203778 17.9833984,13.8164062 C17.9833984,13.2968724 17.8261734,12.8707699 17.5117188,12.5380859 C17.1972641,12.205402 16.7779974,12.0390625 16.2539062,12.0390625 C15.6249969,12.0390625 15.1362322,12.2179344 14.7875977,12.5756836 C14.4389631,12.9334328 14.2646484,13.4313119 14.2646484,14.0693359 L13,14.0693359 C13,13.1533157 13.2950817,12.4127632 13.8852539,11.8476562 C14.4754261,11.2825493 15.264969,11 16.2539062,11 C17.1790411,11 17.9104791,11.2426734 18.4482422,11.7280273 C18.9860053,12.2133813 19.2548828,12.859371 19.2548828,13.6660156 C19.2548828,14.6458382 18.6305401,15.8124932 17.3818359,17.1660156 L14.7158203,20.0576172 L19.7128906,20.0576172 L19.7128906,21.0898438 Z" id="123" fill="#4A4A4A"></path>
    </g>
</svg>