<?xml version="1.0" encoding="UTF-8"?>
<svg width="32px" height="32px" viewBox="0 0 32 32" version="1.1" xmlns="http://www.w3.org/2000/svg" xmlns:xlink="http://www.w3.org/1999/xlink">
    <!-- Generator: Sketch 49.3 (51167) - http://www.bohemiancoding.com/sketch -->
    <title>Shortcodes Icons/Social Icons</title>
    <desc>Created with Sketch.</desc>
    <defs></defs>
    <g id="Shortcodes-Icons/Social-Icons" stroke="none" stroke-width="1" fill="none" fill-rule="evenodd">
        <path d="M16,4 C9.37876261,4 4,9.37876261 4,16 C4,22.6212374 9.37876261,28 16,28 C22.6212374,28 28,22.6212374 28,16 C28,9.37876261 22.6212374,4 16,4 Z M16,5.04347826 C22.0572995,5.04347826 26.9565217,9.94270052 26.9565217,16 C26.9565217,22.0572995 22.0572995,26.9565217 16,26.9565217 C9.94270052,26.9565217 5.04347826,22.0572995 5.04347826,16 C5.04347826,9.94270052 9.94270052,5.04347826 16,5.04347826 Z M16.5217391,8.69565217 C16.0253852,8.69565217 15.6455064,9.03322783 15.399796,9.41304348 C15.1540861,9.79285913 14.9824073,10.2625663 14.8434103,10.7978941 C14.5654162,11.8685492 14.4347826,13.201156 14.4347826,14.4347826 C14.4347826,14.9508906 14.533073,15.3241741 14.5743885,15.7829482 C14.5620755,15.7770525 14.5540877,15.7601184 14.5417798,15.7544158 C14.1405567,15.5684753 13.7438868,15.4782609 13.3913043,15.4782609 C12.9533054,15.4782609 12.2054612,15.5895603 11.5142664,16.1253395 C10.8230717,16.6611186 10.2608696,17.638037 10.2608696,19.1304348 C10.2608696,20.370316 10.6646769,21.3081583 11.274796,21.913383 C11.8849151,22.5186082 12.671211,22.7826087 13.3913043,22.7826087 C14.7299983,22.7826087 15.8197068,22.102156 16.6348506,21.0940897 C17.0944355,21.4871623 17.5816407,21.7391304 18.0869565,21.7391304 C19.0435329,21.7391304 19.7165967,21.02536 20.1698372,20.2381115 C20.6230772,19.450863 20.9300325,18.5128913 21.1908969,17.7302988 C21.2499241,17.5533515 21.2100516,17.3583543 21.0863031,17.2187804 C20.9625546,17.0792065 20.7737364,17.0162672 20.5909933,17.0536773 C20.4082502,17.0910874 20.259354,17.2231618 20.2004075,17.400136 C19.9395327,18.1827609 19.6377489,19.0708762 19.2649454,19.7184103 C18.8921424,20.3659443 18.5218584,20.6956522 18.0869565,20.6956522 C17.8929129,20.6956522 17.571891,20.5050264 17.225883,20.1912363 C17.2720772,20.1101847 17.3322609,20.0421186 17.3756795,19.9588997 C18.211361,18.3571762 18.6086957,16.3354037 18.6086957,14.4347826 C18.6086957,12.8200579 18.3818816,11.4691381 18.051291,10.4860736 C17.8859957,9.99454104 17.6984038,9.59446209 17.4724866,9.28464661 C17.2465689,8.97483113 16.9594762,8.69565217 16.5217391,8.69565217 Z M16.4891304,9.75441583 C16.5124861,9.77253948 16.5640563,9.8114367 16.6287363,9.900136 C16.759493,10.079451 16.9210913,10.3967633 17.0628395,10.8182743 C17.3463358,11.6612967 17.5652174,12.9190725 17.5652174,14.4347826 C17.5652174,16.1276137 17.1891734,17.9332271 16.5064537,19.3158969 C15.9386033,18.3072379 15.4782609,16.7043562 15.4782609,14.4347826 C15.4782609,13.2772788 15.6091245,12.0010595 15.8532609,11.0608016 C15.975329,10.5906729 16.1307071,10.2044503 16.276155,9.97961983 C16.3908859,9.8022687 16.452087,9.76644035 16.4891304,9.75441583 Z M13.3913043,16.5217391 C13.5401132,16.5217391 13.8394757,16.5786812 14.1036003,16.701087 C14.3677256,16.8234927 14.5958127,17.0052421 14.7129755,17.2044838 C14.7162717,17.2099807 14.719669,17.2154164 14.7231656,17.2207882 C14.9308725,18.2654602 15.2198821,19.1678132 15.6025814,19.8437503 C15.687161,19.9931367 15.7974979,20.0571165 15.8879075,20.1902174 C15.2229217,21.0942306 14.4369963,21.7391304 13.3913043,21.7391304 C12.9265282,21.7391304 12.4085414,21.5673729 12.0105301,21.1725541 C11.6125188,20.7777363 11.3043478,20.1512492 11.3043478,19.1304348 C11.3043478,17.8837021 11.7095805,17.2954031 12.1542118,16.9507475 C12.5988431,16.6060918 13.1552163,16.5217391 13.3913043,16.5217391 Z" id="Shape" fill="#4A4A4A" fill-rule="nonzero"></path>
    </g>
</svg>