<?xml version="1.0" encoding="UTF-8"?>
<svg width="32px" height="32px" viewBox="0 0 32 32" version="1.1" xmlns="http://www.w3.org/2000/svg" xmlns:xlink="http://www.w3.org/1999/xlink">
    <!-- Generator: Sketch 49.3 (51167) - http://www.bohemiancoding.com/sketch -->
    <title>Shortcodes Icons/Countdown</title>
    <desc>Created with Sketch.</desc>
    <defs></defs>
    <g id="Shortcodes-Icons/Countdown" stroke="none" stroke-width="1" fill="none" fill-rule="evenodd">
        <g id="Group" transform="translate(4.000000, 4.000000)" fill="#4A4A4A">
            <path d="M3.51471863,3.51471863 L4.22182541,4.22182541 C2.23121694,6.21243388 1,8.96243388 1,12 C1,18.0751322 5.92486775,23 12,23 C18.0751322,23 23,18.0751322 23,12 C23,5.92486775 18.0751322,1 12,1 L12,0 C18.627417,0 24,5.372583 24,12 C24,18.627417 18.627417,24 12,24 C5.372583,24 0,18.627417 0,12 C0,8.6862915 1.34314575,5.6862915 3.51471863,3.51471863 Z" id="Combined-Shape" fill-rule="nonzero"></path>
            <rect id="Rectangle-42" x="12" y="1" width="1" height="5"></rect>
            <path d="M12,13 C12.5522847,13 13,12.5522847 13,12 C13,11.4477153 12.5522847,11 12,11 C11.4477153,11 11,11.4477153 11,12 C11,12.5522847 11.4477153,13 12,13 Z M12,14 C10.8954305,14 10,13.1045695 10,12 C10,10.8954305 10.8954305,10 12,10 C13.1045695,10 14,10.8954305 14,12 C14,13.1045695 13.1045695,14 12,14 Z" id="Oval-14" fill-rule="nonzero"></path>
            <rect id="Rectangle-43" transform="translate(8.818019, 8.818019) rotate(-45.000000) translate(-8.818019, -8.818019) " x="8.31801948" y="5.31801948" width="1" height="7"></rect>
        </g>
    </g>
</svg>