<?xml version="1.0" encoding="UTF-8"?>
<svg width="32px" height="32px" viewBox="0 0 32 32" version="1.1" xmlns="http://www.w3.org/2000/svg" xmlns:xlink="http://www.w3.org/1999/xlink">
    <!-- Generator: Sketch 49.2 (51160) - http://www.bohemiancoding.com/sketch -->
    <title>Round Buttons/Copy/Normal</title>
    <desc>Created with Sketch.</desc>
    <defs>
        <circle id="path-1" cx="16" cy="16" r="16"></circle>
        <path d="M11,4 L14,4 C14.5522847,4 15,4.44771525 15,5 L15,14 C15,14.5522847 14.5522847,15 14,15 L5,15 C4.44771525,15 4,14.5522847 4,14 L4,11 L10.9,11 C10.9552285,11 11,10.9552285 11,10.9 L11,4 Z" id="path-2"></path>
        <rect id="path-3" x="1" y="1" width="11" height="11" rx="1"></rect>
    </defs>
    <g id="Round-Buttons/Copy/Normal" stroke="none" stroke-width="1" fill="none" fill-rule="evenodd">
        <g id="Oval-2">
            <use fill="#FFFFFF" fill-rule="evenodd" xlink:href="#path-1"></use>
            <circle stroke="#EFEFEF" stroke-width="1" cx="16" cy="16" r="15.5"></circle>
        </g>
        <g id="Icons-16x16/Light/Copy" transform="translate(8.000000, 8.000000)">
            <g id="Combined-Shape">
                <use fill-opacity="0" fill="#FFFFFF" fill-rule="evenodd" xlink:href="#path-2"></use>
                <path stroke="#A0A0A0" stroke-width="1" d="M11.5,4.5 L11.5,10.9 C11.5,11.2313708 11.2313708,11.5 10.9,11.5 L4.5,11.5 L4.5,14 C4.5,14.2761424 4.72385763,14.5 5,14.5 L14,14.5 C14.2761424,14.5 14.5,14.2761424 14.5,14 L14.5,5 C14.5,4.72385763 14.2761424,4.5 14,4.5 L11.5,4.5 Z"></path>
            </g>
            <g id="Rectangle-2">
                <use fill-opacity="0" fill="#FFFFFF" fill-rule="evenodd" xlink:href="#path-3"></use>
                <rect stroke="#A0A0A0" stroke-width="1" x="1.5" y="1.5" width="10" height="10" rx="1"></rect>
            </g>
        </g>
    </g>
</svg>