<?xml version="1.0" encoding="UTF-8"?>
<svg width="32px" height="32px" viewBox="0 0 32 32" version="1.1" xmlns="http://www.w3.org/2000/svg" xmlns:xlink="http://www.w3.org/1999/xlink">
    <!-- Generator: Sketch 49.2 (51160) - http://www.bohemiancoding.com/sketch -->
    <title>Round Buttons/Move/Hover</title>
    <desc>Created with Sketch.</desc>
    <defs>
        <circle id="path-1" cx="16" cy="16" r="16"></circle>
    </defs>
    <g id="Round-Buttons/Move/Hover" stroke="none" stroke-width="1" fill="none" fill-rule="evenodd">
        <g id="Oval-2">
            <use fill="#FFFFFF" fill-rule="evenodd" xlink:href="#path-1"></use>
            <circle stroke="#9B9B9B" stroke-width="1" cx="16" cy="16" r="15.5"></circle>
        </g>
        <g id="Icons-16x16/Dark/Move" transform="translate(8.000000, 8.000000)" fill="#646464">
            <path d="M7.5,7.5 L7.5,4 L5,4 L8,1 L11,4 L8.5,4 L8.5,7.5 L12,7.5 L12,5 L15,8 L12,11 L12,8.5 L8.5,8.5 L8.5,12 L11,12 L8,15 L5,12 L7.5,12 L7.5,8.5 L4,8.5 L4,11 L1,8 L4,5 L4,7.5 L7.5,7.5 Z" id="Move"></path>
        </g>
    </g>
</svg>