<?xml version="1.0" encoding="UTF-8"?>
<svg width="16px" height="16px" viewBox="0 0 16 16" version="1.1" xmlns="http://www.w3.org/2000/svg" xmlns:xlink="http://www.w3.org/1999/xlink">
    <!-- Generator: Sketch 49.2 (51160) - http://www.bohemiancoding.com/sketch -->
    <title>Icons-16x16/Dark/Plus</title>
    <desc>Created with Sketch.</desc>
    <defs></defs>
    <g id="Icons-16x16/Dark/Plus" stroke="none" stroke-width="1" fill="none" fill-rule="evenodd">
        <path d="M7.5,7.5 L7.5,1.5 C7.5,1.22385763 7.72385763,1 8,1 C8.27614237,1 8.5,1.22385763 8.5,1.5 L8.5,7.5 L14.5,7.5 C14.7761424,7.5 15,7.72385763 15,8 C15,8.27614237 14.7761424,8.5 14.5,8.5 L8.5,8.5 L8.5,14.5 C8.5,14.7761424 8.27614237,15 8,15 C7.72385763,15 7.5,14.7761424 7.5,14.5 L7.5,8.5 L1.5,8.5 C1.22385763,8.5 1,8.27614237 1,8 C1,7.72385763 1.22385763,7.5 1.5,7.5 L7.5,7.5 Z" id="Rectangle-4" fill="#19BC9C"></path>
    </g>
</svg>