<?xml version="1.0" encoding="UTF-8"?>
<svg width="16px" height="16px" viewBox="0 0 16 16" version="1.1" xmlns="http://www.w3.org/2000/svg" xmlns:xlink="http://www.w3.org/1999/xlink">
    <!-- Generator: Sketch 49.2 (51160) - http://www.bohemiancoding.com/sketch -->
    <title>Icons-16x16/Light/Trash/</title>
    <desc>Created with Sketch.</desc>
    <defs></defs>
    <g id="Icons-16x16/Light/Trash/" stroke="none" stroke-width="1" fill="none" fill-rule="evenodd">
        <path d="M14.5,3 L11,3 C11,1.9 10.1,1 9,1 L7,1 C5.9,1 5,1.9 5,3 L1.5,3 C1.2,3 1,3.2 1,3.5 C1,3.8 1.2,4 1.5,4 L3,4 L3,13 C3,14.1 3.9,15 5,15 L11,15 C12.1,15 13,14.1 13,13 L13,4 L14.5,4 C14.8,4 15,3.8 15,3.5 C15,3.2 14.8,3 14.5,3 Z M7,2 L9,2 C9.6,2 10,2.4 10,3 L6,3 C6,2.4 6.4,2 7,2 Z M12,13 C12,13.6 11.6,14 11,14 L5,14 C4.4,14 4,13.6 4,13 L4,4 L5,4 L11,4 L12,4 L12,13 Z M10,5 C10.3,5 10.5,5.2 10.5,5.5 L10.5,12.5 C10.5,12.8 10.3,13 10,13 C9.7,13 9.5,12.8 9.5,12.5 L9.5,5.5 C9.5,5.2 9.7,5 10,5 Z M6,5 C6.3,5 6.5,5.2 6.5,5.5 L6.5,12.5 C6.5,12.8 6.3,13 6,13 C5.7,13 5.5,12.8 5.5,12.5 L5.5,5.5 C5.5,5.2 5.7,5 6,5 Z M8,5 C8.3,5 8.5,5.2 8.5,5.5 L8.5,12.5 C8.5,12.8 8.3,13 8,13 C7.7,13 7.5,12.8 7.5,12.5 L7.5,5.5 C7.5,5.2 7.7,5 8,5 Z" id="Shape" fill="#A0A0A0" fill-rule="nonzero"></path>
    </g>
</svg>